G04 EAGLE Gerber RS-274X export*
G75*
%MOMM*%
%FSLAX34Y34*%
%LPD*%
%INTop Copper*%
%IPPOS*%
%AMOC8*
5,1,8,0,0,1.08239X$1,22.5*%
G01*
%ADD10C,1.950000*%
%ADD11C,1.308000*%
%ADD12C,1.308000*%
%ADD13C,1.320800*%
%ADD14C,1.422400*%
%ADD15P,1.539592X8X112.500000*%
%ADD16C,1.524000*%
%ADD17C,1.879600*%
%ADD18C,1.108000*%
%ADD19C,2.032000*%
%ADD20R,1.208000X1.208000*%
%ADD21C,1.208000*%
%ADD22C,0.254000*%


D10*
X365760Y503080D03*
X365760Y561080D03*
X317760Y533080D03*
D11*
X127000Y577660D02*
X127000Y590740D01*
X152400Y590740D02*
X152400Y577660D01*
X177800Y577660D02*
X177800Y590740D01*
X203200Y590740D02*
X203200Y577660D01*
X228600Y577660D02*
X228600Y590740D01*
X254000Y590740D02*
X254000Y577660D01*
X120840Y558800D02*
X107760Y558800D01*
X107760Y533400D02*
X120840Y533400D01*
X120840Y508000D02*
X107760Y508000D01*
X107760Y482600D02*
X120840Y482600D01*
X120840Y457200D02*
X107760Y457200D01*
X107760Y431800D02*
X120840Y431800D01*
X120840Y406400D02*
X107760Y406400D01*
X107760Y381000D02*
X120840Y381000D01*
X120840Y355600D02*
X107760Y355600D01*
X107760Y330200D02*
X120840Y330200D01*
X120840Y304800D02*
X107760Y304800D01*
X107760Y279400D02*
X120840Y279400D01*
X260160Y558800D02*
X273240Y558800D01*
X273240Y533400D02*
X260160Y533400D01*
X260160Y508000D02*
X273240Y508000D01*
X273240Y482600D02*
X260160Y482600D01*
X260160Y457200D02*
X273240Y457200D01*
X273240Y431800D02*
X260160Y431800D01*
X260160Y406400D02*
X273240Y406400D01*
X273240Y381000D02*
X260160Y381000D01*
X260160Y355600D02*
X273240Y355600D01*
X273240Y330200D02*
X260160Y330200D01*
X260160Y304800D02*
X273240Y304800D01*
X273240Y279400D02*
X260160Y279400D01*
X228600Y285940D02*
X228600Y272860D01*
X203200Y272860D02*
X203200Y285940D01*
X177800Y285940D02*
X177800Y272860D01*
D12*
X228600Y469900D03*
X228600Y444500D03*
D13*
X95504Y228600D02*
X82296Y228600D01*
X82296Y203200D02*
X95504Y203200D01*
X95504Y177800D02*
X82296Y177800D01*
X82296Y152400D02*
X95504Y152400D01*
X95504Y127000D02*
X82296Y127000D01*
X82296Y101600D02*
X95504Y101600D01*
D14*
X241300Y50800D03*
D15*
X266700Y50800D03*
X241300Y76200D03*
X266700Y76200D03*
X241300Y101600D03*
X266700Y101600D03*
X241300Y127000D03*
X266700Y127000D03*
X241300Y152400D03*
X266700Y152400D03*
X241300Y177800D03*
X266700Y177800D03*
D16*
X190500Y203200D03*
X165100Y203200D03*
X139700Y203200D03*
D17*
X139700Y228600D03*
X165100Y228600D03*
X190500Y228600D03*
X215900Y228600D03*
X241300Y228600D03*
X266700Y228600D03*
D18*
X342900Y228600D03*
X469900Y228600D03*
X444500Y76200D03*
X368300Y76200D03*
X342900Y457200D03*
X469900Y457200D03*
X444500Y304800D03*
X368300Y304800D03*
D17*
X457200Y584200D03*
X457200Y558800D03*
X457200Y533400D03*
D19*
X177800Y342900D03*
X177800Y419100D03*
D20*
X304800Y485300D03*
D21*
X304800Y505300D03*
D22*
X139700Y203200D02*
X139700Y165100D01*
X203200Y165100D02*
X266700Y228600D01*
X203200Y165100D02*
X139700Y165100D01*
X228600Y558800D02*
X266700Y558800D01*
X228600Y558800D02*
X203200Y533400D01*
X203200Y457200D01*
X203200Y355600D01*
X241300Y317500D01*
X241300Y254000D01*
X304800Y254000D01*
X304800Y203200D01*
X144014Y213614D02*
X135386Y213614D01*
X124972Y203200D02*
X88900Y203200D01*
X154428Y203200D02*
X165100Y203200D01*
X135386Y213614D02*
X124972Y203200D01*
X144014Y213614D02*
X154428Y203200D01*
X177292Y233650D02*
X170150Y240792D01*
X152908Y240792D02*
X114300Y279400D01*
X177292Y216408D02*
X190500Y203200D01*
X170150Y240792D02*
X152908Y240792D01*
X177292Y233650D02*
X177292Y216408D01*
M02*
