G04 EAGLE Gerber RS-274X export*
G75*
%MOMM*%
%FSLAX34Y34*%
%LPD*%
%INSilkscreen Top*%
%IPPOS*%
%AMOC8*
5,1,8,0,0,1.08239X$1,22.5*%
G01*
%ADD10C,0.203200*%
%ADD11C,0.127000*%
%ADD12C,0.152400*%
%ADD13R,17.780000X20.320000*%
%ADD14C,0.254000*%
%ADD15C,0.120000*%
%ADD16C,0.200000*%


D10*
X320760Y494080D02*
X356760Y494080D01*
X320760Y545080D02*
X320760Y604080D01*
X320760Y521080D02*
X320760Y494080D01*
X410760Y494080D02*
X410760Y604080D01*
X410760Y494080D02*
X374760Y494080D01*
X410760Y604080D02*
X320760Y604080D01*
D11*
X375244Y614101D02*
X375244Y617855D01*
X375244Y614101D02*
X375242Y614036D01*
X375236Y613972D01*
X375226Y613908D01*
X375213Y613844D01*
X375195Y613782D01*
X375174Y613721D01*
X375150Y613661D01*
X375121Y613603D01*
X375089Y613546D01*
X375054Y613492D01*
X375016Y613440D01*
X374974Y613390D01*
X374930Y613343D01*
X374883Y613299D01*
X374833Y613257D01*
X374781Y613219D01*
X374727Y613184D01*
X374670Y613152D01*
X374612Y613123D01*
X374552Y613099D01*
X374491Y613078D01*
X374429Y613060D01*
X374365Y613047D01*
X374301Y613037D01*
X374237Y613031D01*
X374172Y613029D01*
X373635Y613029D01*
X378192Y616783D02*
X379532Y617855D01*
X379532Y613029D01*
X378192Y613029D02*
X380873Y613029D01*
D12*
X101600Y241300D02*
X76200Y241300D01*
X76200Y218440D01*
X78740Y215900D01*
X76200Y213360D01*
X76200Y193040D01*
X78740Y190500D01*
X76200Y187960D01*
X76200Y167640D01*
X78740Y165100D01*
X76200Y162560D01*
X76200Y142240D01*
X78740Y139700D01*
X76200Y137160D01*
X76200Y116840D01*
X76200Y111760D02*
X76200Y88900D01*
X101600Y88900D01*
X101600Y111760D01*
X101600Y116840D02*
X101600Y137160D01*
X99060Y139700D01*
X101600Y142240D01*
X101600Y162560D01*
X99060Y165100D01*
X101600Y167640D01*
X101600Y187960D01*
X99060Y190500D01*
X101600Y193040D01*
X101600Y213360D01*
X99060Y215900D01*
X101600Y218440D01*
X101600Y241300D01*
X99060Y114300D02*
X101600Y111760D01*
X99060Y114300D02*
X101600Y116840D01*
X78740Y114300D02*
X76200Y111760D01*
X78740Y114300D02*
X76200Y116840D01*
D11*
X107315Y226695D02*
X104775Y229870D01*
X116205Y229870D01*
X116205Y226695D02*
X116205Y233045D01*
X109855Y103505D02*
X109855Y99695D01*
X109855Y103505D02*
X109857Y103605D01*
X109863Y103704D01*
X109873Y103804D01*
X109886Y103902D01*
X109904Y104001D01*
X109925Y104098D01*
X109950Y104194D01*
X109979Y104290D01*
X110012Y104384D01*
X110048Y104477D01*
X110088Y104568D01*
X110132Y104658D01*
X110179Y104746D01*
X110229Y104832D01*
X110283Y104916D01*
X110340Y104998D01*
X110400Y105077D01*
X110464Y105155D01*
X110530Y105229D01*
X110599Y105301D01*
X110671Y105370D01*
X110745Y105436D01*
X110823Y105500D01*
X110902Y105560D01*
X110984Y105617D01*
X111068Y105671D01*
X111154Y105721D01*
X111242Y105768D01*
X111332Y105812D01*
X111423Y105852D01*
X111516Y105888D01*
X111610Y105921D01*
X111706Y105950D01*
X111802Y105975D01*
X111899Y105996D01*
X111998Y106014D01*
X112096Y106027D01*
X112196Y106037D01*
X112295Y106043D01*
X112395Y106045D01*
X113030Y106045D01*
X113141Y106043D01*
X113251Y106037D01*
X113362Y106028D01*
X113472Y106014D01*
X113581Y105997D01*
X113690Y105976D01*
X113798Y105951D01*
X113905Y105922D01*
X114011Y105890D01*
X114116Y105854D01*
X114219Y105814D01*
X114321Y105771D01*
X114422Y105724D01*
X114521Y105673D01*
X114618Y105620D01*
X114712Y105563D01*
X114805Y105502D01*
X114896Y105439D01*
X114985Y105372D01*
X115071Y105302D01*
X115154Y105229D01*
X115236Y105154D01*
X115314Y105076D01*
X115389Y104994D01*
X115462Y104911D01*
X115532Y104825D01*
X115599Y104736D01*
X115662Y104645D01*
X115723Y104552D01*
X115780Y104457D01*
X115833Y104361D01*
X115884Y104262D01*
X115931Y104161D01*
X115974Y104059D01*
X116014Y103956D01*
X116050Y103851D01*
X116082Y103745D01*
X116111Y103638D01*
X116136Y103530D01*
X116157Y103421D01*
X116174Y103312D01*
X116188Y103202D01*
X116197Y103091D01*
X116203Y102981D01*
X116205Y102870D01*
X116203Y102759D01*
X116197Y102649D01*
X116188Y102538D01*
X116174Y102428D01*
X116157Y102319D01*
X116136Y102210D01*
X116111Y102102D01*
X116082Y101995D01*
X116050Y101889D01*
X116014Y101784D01*
X115974Y101681D01*
X115931Y101579D01*
X115884Y101478D01*
X115833Y101379D01*
X115780Y101282D01*
X115723Y101188D01*
X115662Y101095D01*
X115599Y101004D01*
X115532Y100915D01*
X115462Y100829D01*
X115389Y100746D01*
X115314Y100664D01*
X115236Y100586D01*
X115154Y100511D01*
X115071Y100438D01*
X114985Y100368D01*
X114896Y100301D01*
X114805Y100238D01*
X114712Y100177D01*
X114617Y100120D01*
X114521Y100067D01*
X114422Y100016D01*
X114321Y99969D01*
X114219Y99926D01*
X114116Y99886D01*
X114011Y99850D01*
X113905Y99818D01*
X113798Y99789D01*
X113690Y99764D01*
X113581Y99743D01*
X113472Y99726D01*
X113362Y99712D01*
X113251Y99703D01*
X113141Y99697D01*
X113030Y99695D01*
X109855Y99695D01*
X109715Y99697D01*
X109575Y99703D01*
X109435Y99712D01*
X109296Y99726D01*
X109157Y99743D01*
X109019Y99764D01*
X108881Y99789D01*
X108744Y99818D01*
X108608Y99850D01*
X108473Y99887D01*
X108339Y99927D01*
X108206Y99970D01*
X108074Y100018D01*
X107943Y100068D01*
X107814Y100123D01*
X107687Y100181D01*
X107561Y100242D01*
X107437Y100307D01*
X107315Y100376D01*
X107195Y100447D01*
X107077Y100522D01*
X106960Y100600D01*
X106846Y100682D01*
X106735Y100766D01*
X106626Y100854D01*
X106519Y100944D01*
X106414Y101038D01*
X106313Y101134D01*
X106214Y101233D01*
X106118Y101334D01*
X106024Y101439D01*
X105934Y101546D01*
X105846Y101655D01*
X105762Y101766D01*
X105680Y101880D01*
X105602Y101997D01*
X105527Y102115D01*
X105456Y102235D01*
X105387Y102357D01*
X105322Y102481D01*
X105261Y102607D01*
X105203Y102734D01*
X105148Y102863D01*
X105098Y102994D01*
X105050Y103126D01*
X105007Y103259D01*
X104967Y103393D01*
X104930Y103528D01*
X104898Y103664D01*
X104869Y103801D01*
X104844Y103939D01*
X104823Y104077D01*
X104806Y104216D01*
X104792Y104355D01*
X104783Y104495D01*
X104777Y104635D01*
X104775Y104775D01*
X117475Y177546D02*
X117473Y177646D01*
X117467Y177745D01*
X117457Y177845D01*
X117444Y177943D01*
X117426Y178042D01*
X117405Y178139D01*
X117380Y178235D01*
X117351Y178331D01*
X117318Y178425D01*
X117282Y178518D01*
X117242Y178609D01*
X117198Y178699D01*
X117151Y178787D01*
X117101Y178873D01*
X117047Y178957D01*
X116990Y179039D01*
X116930Y179118D01*
X116866Y179196D01*
X116800Y179270D01*
X116731Y179342D01*
X116659Y179411D01*
X116585Y179477D01*
X116507Y179541D01*
X116428Y179601D01*
X116346Y179658D01*
X116262Y179712D01*
X116176Y179762D01*
X116088Y179809D01*
X115998Y179853D01*
X115907Y179893D01*
X115814Y179929D01*
X115720Y179962D01*
X115624Y179991D01*
X115528Y180016D01*
X115431Y180037D01*
X115332Y180055D01*
X115234Y180068D01*
X115134Y180078D01*
X115035Y180084D01*
X114935Y180086D01*
X117475Y177546D02*
X117473Y177405D01*
X117468Y177264D01*
X117458Y177123D01*
X117445Y176982D01*
X117429Y176842D01*
X117408Y176702D01*
X117384Y176563D01*
X117356Y176424D01*
X117325Y176287D01*
X117290Y176150D01*
X117252Y176014D01*
X117210Y175879D01*
X117164Y175746D01*
X117115Y175613D01*
X117062Y175482D01*
X117006Y175353D01*
X116947Y175224D01*
X116884Y175098D01*
X116818Y174973D01*
X116749Y174850D01*
X116676Y174729D01*
X116600Y174610D01*
X116521Y174492D01*
X116440Y174377D01*
X116355Y174265D01*
X116267Y174154D01*
X116176Y174046D01*
X116083Y173940D01*
X115986Y173837D01*
X115887Y173736D01*
X108585Y174054D02*
X108485Y174056D01*
X108386Y174062D01*
X108286Y174072D01*
X108188Y174085D01*
X108089Y174103D01*
X107992Y174124D01*
X107896Y174149D01*
X107800Y174178D01*
X107706Y174211D01*
X107613Y174247D01*
X107522Y174287D01*
X107432Y174331D01*
X107344Y174378D01*
X107258Y174428D01*
X107174Y174482D01*
X107092Y174539D01*
X107013Y174599D01*
X106935Y174663D01*
X106861Y174729D01*
X106789Y174798D01*
X106720Y174870D01*
X106654Y174944D01*
X106590Y175022D01*
X106530Y175101D01*
X106473Y175183D01*
X106419Y175267D01*
X106369Y175353D01*
X106322Y175441D01*
X106278Y175531D01*
X106238Y175622D01*
X106202Y175715D01*
X106169Y175809D01*
X106140Y175905D01*
X106115Y176001D01*
X106094Y176098D01*
X106076Y176197D01*
X106063Y176295D01*
X106053Y176395D01*
X106047Y176494D01*
X106045Y176594D01*
X106047Y176727D01*
X106052Y176860D01*
X106062Y176993D01*
X106075Y177126D01*
X106092Y177258D01*
X106112Y177390D01*
X106136Y177521D01*
X106164Y177651D01*
X106195Y177781D01*
X106230Y177909D01*
X106269Y178037D01*
X106311Y178163D01*
X106357Y178288D01*
X106406Y178412D01*
X106458Y178535D01*
X106514Y178656D01*
X106574Y178775D01*
X106636Y178893D01*
X106702Y179008D01*
X106771Y179122D01*
X106844Y179234D01*
X106919Y179344D01*
X106998Y179452D01*
X110808Y175323D02*
X110756Y175239D01*
X110701Y175156D01*
X110642Y175076D01*
X110581Y174998D01*
X110517Y174923D01*
X110449Y174850D01*
X110379Y174779D01*
X110307Y174712D01*
X110232Y174647D01*
X110154Y174585D01*
X110074Y174526D01*
X109992Y174470D01*
X109908Y174418D01*
X109822Y174369D01*
X109734Y174323D01*
X109644Y174280D01*
X109553Y174241D01*
X109460Y174206D01*
X109366Y174174D01*
X109271Y174146D01*
X109175Y174121D01*
X109078Y174101D01*
X108980Y174083D01*
X108882Y174070D01*
X108783Y174061D01*
X108684Y174055D01*
X108585Y174053D01*
X112712Y178816D02*
X112764Y178900D01*
X112819Y178983D01*
X112878Y179063D01*
X112939Y179141D01*
X113003Y179216D01*
X113071Y179289D01*
X113141Y179360D01*
X113213Y179427D01*
X113288Y179492D01*
X113366Y179554D01*
X113446Y179613D01*
X113528Y179669D01*
X113612Y179721D01*
X113698Y179770D01*
X113786Y179816D01*
X113876Y179859D01*
X113967Y179898D01*
X114060Y179933D01*
X114154Y179965D01*
X114249Y179993D01*
X114345Y180018D01*
X114442Y180038D01*
X114540Y180056D01*
X114638Y180069D01*
X114737Y180078D01*
X114836Y180084D01*
X114935Y180086D01*
X112713Y178816D02*
X110808Y175324D01*
X106045Y184150D02*
X117475Y187960D01*
X106045Y191770D01*
X106045Y199708D02*
X106047Y199812D01*
X106053Y199917D01*
X106062Y200021D01*
X106075Y200124D01*
X106093Y200227D01*
X106113Y200329D01*
X106138Y200431D01*
X106166Y200531D01*
X106198Y200631D01*
X106234Y200729D01*
X106273Y200826D01*
X106315Y200921D01*
X106361Y201015D01*
X106411Y201107D01*
X106463Y201197D01*
X106519Y201285D01*
X106579Y201371D01*
X106641Y201455D01*
X106706Y201536D01*
X106774Y201615D01*
X106846Y201692D01*
X106919Y201765D01*
X106996Y201837D01*
X107075Y201905D01*
X107156Y201970D01*
X107240Y202032D01*
X107326Y202092D01*
X107414Y202148D01*
X107504Y202200D01*
X107596Y202250D01*
X107690Y202296D01*
X107785Y202338D01*
X107882Y202377D01*
X107980Y202413D01*
X108080Y202445D01*
X108180Y202473D01*
X108282Y202498D01*
X108384Y202518D01*
X108487Y202536D01*
X108590Y202549D01*
X108694Y202558D01*
X108799Y202564D01*
X108903Y202566D01*
X106045Y199708D02*
X106047Y199590D01*
X106053Y199471D01*
X106062Y199353D01*
X106075Y199236D01*
X106093Y199119D01*
X106113Y199002D01*
X106138Y198886D01*
X106166Y198771D01*
X106199Y198658D01*
X106234Y198545D01*
X106274Y198433D01*
X106316Y198323D01*
X106363Y198214D01*
X106413Y198106D01*
X106466Y198001D01*
X106523Y197897D01*
X106583Y197795D01*
X106646Y197695D01*
X106713Y197597D01*
X106782Y197501D01*
X106855Y197408D01*
X106931Y197317D01*
X107009Y197228D01*
X107091Y197142D01*
X107175Y197059D01*
X107261Y196978D01*
X107351Y196901D01*
X107442Y196826D01*
X107536Y196754D01*
X107633Y196685D01*
X107731Y196620D01*
X107832Y196557D01*
X107935Y196498D01*
X108039Y196442D01*
X108145Y196390D01*
X108253Y196341D01*
X108362Y196296D01*
X108473Y196254D01*
X108585Y196216D01*
X111125Y201613D02*
X111050Y201689D01*
X110971Y201764D01*
X110890Y201835D01*
X110806Y201904D01*
X110720Y201969D01*
X110632Y202031D01*
X110542Y202091D01*
X110450Y202147D01*
X110355Y202200D01*
X110259Y202249D01*
X110161Y202295D01*
X110062Y202338D01*
X109961Y202377D01*
X109859Y202412D01*
X109756Y202444D01*
X109652Y202472D01*
X109547Y202497D01*
X109440Y202518D01*
X109334Y202535D01*
X109227Y202548D01*
X109119Y202557D01*
X109011Y202563D01*
X108903Y202565D01*
X111125Y201613D02*
X117475Y196215D01*
X117475Y202565D01*
D12*
X223520Y184150D02*
X223520Y44450D01*
X229870Y190500D02*
X278130Y190500D01*
X278130Y38100D02*
X229870Y38100D01*
X284480Y44450D02*
X284480Y184150D01*
X223520Y44450D02*
X223522Y44292D01*
X223528Y44133D01*
X223538Y43975D01*
X223552Y43818D01*
X223569Y43660D01*
X223591Y43504D01*
X223616Y43347D01*
X223646Y43192D01*
X223679Y43037D01*
X223716Y42883D01*
X223757Y42730D01*
X223802Y42578D01*
X223851Y42428D01*
X223903Y42278D01*
X223959Y42130D01*
X224019Y41983D01*
X224082Y41838D01*
X224149Y41695D01*
X224219Y41553D01*
X224293Y41413D01*
X224371Y41275D01*
X224452Y41139D01*
X224536Y41005D01*
X224623Y40873D01*
X224714Y40743D01*
X224808Y40616D01*
X224905Y40491D01*
X225006Y40368D01*
X225109Y40248D01*
X225215Y40131D01*
X225324Y40016D01*
X225436Y39904D01*
X225551Y39795D01*
X225668Y39689D01*
X225788Y39586D01*
X225911Y39485D01*
X226036Y39388D01*
X226163Y39294D01*
X226293Y39203D01*
X226425Y39116D01*
X226559Y39032D01*
X226695Y38951D01*
X226833Y38873D01*
X226973Y38799D01*
X227115Y38729D01*
X227258Y38662D01*
X227403Y38599D01*
X227550Y38539D01*
X227698Y38483D01*
X227848Y38431D01*
X227998Y38382D01*
X228150Y38337D01*
X228303Y38296D01*
X228457Y38259D01*
X228612Y38226D01*
X228767Y38196D01*
X228924Y38171D01*
X229080Y38149D01*
X229238Y38132D01*
X229395Y38118D01*
X229553Y38108D01*
X229712Y38102D01*
X229870Y38100D01*
X223520Y184150D02*
X223522Y184308D01*
X223528Y184467D01*
X223538Y184625D01*
X223552Y184782D01*
X223569Y184940D01*
X223591Y185096D01*
X223616Y185253D01*
X223646Y185408D01*
X223679Y185563D01*
X223716Y185717D01*
X223757Y185870D01*
X223802Y186022D01*
X223851Y186172D01*
X223903Y186322D01*
X223959Y186470D01*
X224019Y186617D01*
X224082Y186762D01*
X224149Y186905D01*
X224219Y187047D01*
X224293Y187187D01*
X224371Y187325D01*
X224452Y187461D01*
X224536Y187595D01*
X224623Y187727D01*
X224714Y187857D01*
X224808Y187984D01*
X224905Y188109D01*
X225006Y188232D01*
X225109Y188352D01*
X225215Y188469D01*
X225324Y188584D01*
X225436Y188696D01*
X225551Y188805D01*
X225668Y188911D01*
X225788Y189014D01*
X225911Y189115D01*
X226036Y189212D01*
X226163Y189306D01*
X226293Y189397D01*
X226425Y189484D01*
X226559Y189568D01*
X226695Y189649D01*
X226833Y189727D01*
X226973Y189801D01*
X227115Y189871D01*
X227258Y189938D01*
X227403Y190001D01*
X227550Y190061D01*
X227698Y190117D01*
X227848Y190169D01*
X227998Y190218D01*
X228150Y190263D01*
X228303Y190304D01*
X228457Y190341D01*
X228612Y190374D01*
X228767Y190404D01*
X228924Y190429D01*
X229080Y190451D01*
X229238Y190468D01*
X229395Y190482D01*
X229553Y190492D01*
X229712Y190498D01*
X229870Y190500D01*
X278130Y190500D02*
X278288Y190498D01*
X278447Y190492D01*
X278605Y190482D01*
X278762Y190468D01*
X278920Y190451D01*
X279076Y190429D01*
X279233Y190404D01*
X279388Y190374D01*
X279543Y190341D01*
X279697Y190304D01*
X279850Y190263D01*
X280002Y190218D01*
X280152Y190169D01*
X280302Y190117D01*
X280450Y190061D01*
X280597Y190001D01*
X280742Y189938D01*
X280885Y189871D01*
X281027Y189801D01*
X281167Y189727D01*
X281305Y189649D01*
X281441Y189568D01*
X281575Y189484D01*
X281707Y189397D01*
X281837Y189306D01*
X281964Y189212D01*
X282089Y189115D01*
X282212Y189014D01*
X282332Y188911D01*
X282449Y188805D01*
X282564Y188696D01*
X282676Y188584D01*
X282785Y188469D01*
X282891Y188352D01*
X282994Y188232D01*
X283095Y188109D01*
X283192Y187984D01*
X283286Y187857D01*
X283377Y187727D01*
X283464Y187595D01*
X283548Y187461D01*
X283629Y187325D01*
X283707Y187187D01*
X283781Y187047D01*
X283851Y186905D01*
X283918Y186762D01*
X283981Y186617D01*
X284041Y186470D01*
X284097Y186322D01*
X284149Y186172D01*
X284198Y186022D01*
X284243Y185870D01*
X284284Y185717D01*
X284321Y185563D01*
X284354Y185408D01*
X284384Y185253D01*
X284409Y185096D01*
X284431Y184940D01*
X284448Y184782D01*
X284462Y184625D01*
X284472Y184467D01*
X284478Y184308D01*
X284480Y184150D01*
X284480Y44450D02*
X284478Y44292D01*
X284472Y44133D01*
X284462Y43975D01*
X284448Y43818D01*
X284431Y43660D01*
X284409Y43504D01*
X284384Y43347D01*
X284354Y43192D01*
X284321Y43037D01*
X284284Y42883D01*
X284243Y42730D01*
X284198Y42578D01*
X284149Y42428D01*
X284097Y42278D01*
X284041Y42130D01*
X283981Y41983D01*
X283918Y41838D01*
X283851Y41695D01*
X283781Y41553D01*
X283707Y41413D01*
X283629Y41275D01*
X283548Y41139D01*
X283464Y41005D01*
X283377Y40873D01*
X283286Y40743D01*
X283192Y40616D01*
X283095Y40491D01*
X282994Y40368D01*
X282891Y40248D01*
X282785Y40131D01*
X282676Y40016D01*
X282564Y39904D01*
X282449Y39795D01*
X282332Y39689D01*
X282212Y39586D01*
X282089Y39485D01*
X281964Y39388D01*
X281837Y39294D01*
X281707Y39203D01*
X281575Y39116D01*
X281441Y39032D01*
X281305Y38951D01*
X281167Y38873D01*
X281027Y38799D01*
X280885Y38729D01*
X280742Y38662D01*
X280597Y38599D01*
X280450Y38539D01*
X280302Y38483D01*
X280152Y38431D01*
X280002Y38382D01*
X279850Y38337D01*
X279697Y38296D01*
X279543Y38259D01*
X279388Y38226D01*
X279233Y38196D01*
X279076Y38171D01*
X278920Y38149D01*
X278762Y38132D01*
X278605Y38118D01*
X278447Y38108D01*
X278288Y38102D01*
X278130Y38100D01*
D11*
X210185Y46355D02*
X207645Y49530D01*
X219075Y49530D01*
X219075Y46355D02*
X219075Y52705D01*
X291465Y168275D02*
X288925Y171450D01*
X300355Y171450D01*
X300355Y168275D02*
X300355Y174625D01*
X288925Y183198D02*
X288927Y183302D01*
X288933Y183407D01*
X288942Y183511D01*
X288955Y183614D01*
X288973Y183717D01*
X288993Y183819D01*
X289018Y183921D01*
X289046Y184021D01*
X289078Y184121D01*
X289114Y184219D01*
X289153Y184316D01*
X289195Y184411D01*
X289241Y184505D01*
X289291Y184597D01*
X289343Y184687D01*
X289399Y184775D01*
X289459Y184861D01*
X289521Y184945D01*
X289586Y185026D01*
X289654Y185105D01*
X289726Y185182D01*
X289799Y185255D01*
X289876Y185327D01*
X289955Y185395D01*
X290036Y185460D01*
X290120Y185522D01*
X290206Y185582D01*
X290294Y185638D01*
X290384Y185690D01*
X290476Y185740D01*
X290570Y185786D01*
X290665Y185828D01*
X290762Y185867D01*
X290860Y185903D01*
X290960Y185935D01*
X291060Y185963D01*
X291162Y185988D01*
X291264Y186008D01*
X291367Y186026D01*
X291470Y186039D01*
X291574Y186048D01*
X291679Y186054D01*
X291783Y186056D01*
X288925Y183198D02*
X288927Y183080D01*
X288933Y182961D01*
X288942Y182843D01*
X288955Y182726D01*
X288973Y182609D01*
X288993Y182492D01*
X289018Y182376D01*
X289046Y182261D01*
X289079Y182148D01*
X289114Y182035D01*
X289154Y181923D01*
X289196Y181813D01*
X289243Y181704D01*
X289293Y181596D01*
X289346Y181491D01*
X289403Y181387D01*
X289463Y181285D01*
X289526Y181185D01*
X289593Y181087D01*
X289662Y180991D01*
X289735Y180898D01*
X289811Y180807D01*
X289889Y180718D01*
X289971Y180632D01*
X290055Y180549D01*
X290141Y180468D01*
X290231Y180391D01*
X290322Y180316D01*
X290416Y180244D01*
X290513Y180175D01*
X290611Y180110D01*
X290712Y180047D01*
X290815Y179988D01*
X290919Y179932D01*
X291025Y179880D01*
X291133Y179831D01*
X291242Y179786D01*
X291353Y179744D01*
X291465Y179706D01*
X294005Y185103D02*
X293930Y185179D01*
X293851Y185254D01*
X293770Y185325D01*
X293686Y185394D01*
X293600Y185459D01*
X293512Y185521D01*
X293422Y185581D01*
X293330Y185637D01*
X293235Y185690D01*
X293139Y185739D01*
X293041Y185785D01*
X292942Y185828D01*
X292841Y185867D01*
X292739Y185902D01*
X292636Y185934D01*
X292532Y185962D01*
X292427Y185987D01*
X292320Y186008D01*
X292214Y186025D01*
X292107Y186038D01*
X291999Y186047D01*
X291891Y186053D01*
X291783Y186055D01*
X294005Y185103D02*
X300355Y179705D01*
X300355Y186055D01*
X216535Y95885D02*
X216635Y95883D01*
X216734Y95877D01*
X216834Y95867D01*
X216932Y95854D01*
X217031Y95836D01*
X217128Y95815D01*
X217224Y95790D01*
X217320Y95761D01*
X217414Y95728D01*
X217507Y95692D01*
X217598Y95652D01*
X217688Y95608D01*
X217776Y95561D01*
X217862Y95511D01*
X217946Y95457D01*
X218028Y95400D01*
X218107Y95340D01*
X218185Y95276D01*
X218259Y95210D01*
X218331Y95141D01*
X218400Y95069D01*
X218466Y94995D01*
X218530Y94917D01*
X218590Y94838D01*
X218647Y94756D01*
X218701Y94672D01*
X218751Y94586D01*
X218798Y94498D01*
X218842Y94408D01*
X218882Y94317D01*
X218918Y94224D01*
X218951Y94130D01*
X218980Y94034D01*
X219005Y93938D01*
X219026Y93841D01*
X219044Y93742D01*
X219057Y93644D01*
X219067Y93544D01*
X219073Y93445D01*
X219075Y93345D01*
X219073Y93204D01*
X219068Y93063D01*
X219058Y92922D01*
X219045Y92781D01*
X219029Y92641D01*
X219008Y92501D01*
X218984Y92362D01*
X218956Y92223D01*
X218925Y92086D01*
X218890Y91949D01*
X218852Y91813D01*
X218810Y91678D01*
X218764Y91545D01*
X218715Y91412D01*
X218662Y91281D01*
X218606Y91152D01*
X218547Y91023D01*
X218484Y90897D01*
X218418Y90772D01*
X218349Y90649D01*
X218276Y90528D01*
X218200Y90409D01*
X218121Y90291D01*
X218040Y90176D01*
X217955Y90064D01*
X217867Y89953D01*
X217776Y89845D01*
X217683Y89739D01*
X217586Y89636D01*
X217487Y89535D01*
X210185Y89853D02*
X210085Y89855D01*
X209986Y89861D01*
X209886Y89871D01*
X209788Y89884D01*
X209689Y89902D01*
X209592Y89923D01*
X209496Y89948D01*
X209400Y89977D01*
X209306Y90010D01*
X209213Y90046D01*
X209122Y90086D01*
X209032Y90130D01*
X208944Y90177D01*
X208858Y90227D01*
X208774Y90281D01*
X208692Y90338D01*
X208613Y90398D01*
X208535Y90462D01*
X208461Y90528D01*
X208389Y90597D01*
X208320Y90669D01*
X208254Y90743D01*
X208190Y90821D01*
X208130Y90900D01*
X208073Y90982D01*
X208019Y91066D01*
X207969Y91152D01*
X207922Y91240D01*
X207878Y91330D01*
X207838Y91421D01*
X207802Y91514D01*
X207769Y91608D01*
X207740Y91704D01*
X207715Y91800D01*
X207694Y91897D01*
X207676Y91996D01*
X207663Y92094D01*
X207653Y92194D01*
X207647Y92293D01*
X207645Y92393D01*
X207647Y92526D01*
X207652Y92659D01*
X207662Y92792D01*
X207675Y92925D01*
X207692Y93057D01*
X207712Y93189D01*
X207736Y93320D01*
X207764Y93450D01*
X207795Y93580D01*
X207830Y93708D01*
X207869Y93836D01*
X207911Y93962D01*
X207957Y94087D01*
X208006Y94211D01*
X208058Y94334D01*
X208114Y94455D01*
X208174Y94574D01*
X208236Y94692D01*
X208302Y94807D01*
X208371Y94921D01*
X208444Y95033D01*
X208519Y95143D01*
X208598Y95251D01*
X212408Y91122D02*
X212356Y91038D01*
X212301Y90955D01*
X212242Y90875D01*
X212181Y90797D01*
X212117Y90722D01*
X212049Y90649D01*
X211979Y90578D01*
X211907Y90511D01*
X211832Y90446D01*
X211754Y90384D01*
X211674Y90325D01*
X211592Y90269D01*
X211508Y90217D01*
X211422Y90168D01*
X211334Y90122D01*
X211244Y90079D01*
X211153Y90040D01*
X211060Y90005D01*
X210966Y89973D01*
X210871Y89945D01*
X210775Y89920D01*
X210678Y89900D01*
X210580Y89882D01*
X210482Y89869D01*
X210383Y89860D01*
X210284Y89854D01*
X210185Y89852D01*
X214312Y94615D02*
X214364Y94699D01*
X214419Y94782D01*
X214478Y94862D01*
X214539Y94940D01*
X214603Y95015D01*
X214671Y95088D01*
X214741Y95159D01*
X214813Y95226D01*
X214888Y95291D01*
X214966Y95353D01*
X215046Y95412D01*
X215128Y95468D01*
X215212Y95520D01*
X215298Y95569D01*
X215386Y95615D01*
X215476Y95658D01*
X215567Y95697D01*
X215660Y95732D01*
X215754Y95764D01*
X215849Y95792D01*
X215945Y95817D01*
X216042Y95837D01*
X216140Y95855D01*
X216238Y95868D01*
X216337Y95877D01*
X216436Y95883D01*
X216535Y95885D01*
X214313Y94615D02*
X212408Y91123D01*
X207645Y99949D02*
X219075Y103759D01*
X207645Y107569D01*
X219075Y112014D02*
X219075Y115189D01*
X219073Y115300D01*
X219067Y115410D01*
X219058Y115521D01*
X219044Y115631D01*
X219027Y115740D01*
X219006Y115849D01*
X218981Y115957D01*
X218952Y116064D01*
X218920Y116170D01*
X218884Y116275D01*
X218844Y116378D01*
X218801Y116480D01*
X218754Y116581D01*
X218703Y116680D01*
X218650Y116777D01*
X218593Y116871D01*
X218532Y116964D01*
X218469Y117055D01*
X218402Y117144D01*
X218332Y117230D01*
X218259Y117313D01*
X218184Y117395D01*
X218106Y117473D01*
X218024Y117548D01*
X217941Y117621D01*
X217855Y117691D01*
X217766Y117758D01*
X217675Y117821D01*
X217582Y117882D01*
X217488Y117939D01*
X217391Y117992D01*
X217292Y118043D01*
X217191Y118090D01*
X217089Y118133D01*
X216986Y118173D01*
X216881Y118209D01*
X216775Y118241D01*
X216668Y118270D01*
X216560Y118295D01*
X216451Y118316D01*
X216342Y118333D01*
X216232Y118347D01*
X216121Y118356D01*
X216011Y118362D01*
X215900Y118364D01*
X215789Y118362D01*
X215679Y118356D01*
X215568Y118347D01*
X215458Y118333D01*
X215349Y118316D01*
X215240Y118295D01*
X215132Y118270D01*
X215025Y118241D01*
X214919Y118209D01*
X214814Y118173D01*
X214711Y118133D01*
X214609Y118090D01*
X214508Y118043D01*
X214409Y117992D01*
X214313Y117939D01*
X214218Y117882D01*
X214125Y117821D01*
X214034Y117758D01*
X213945Y117691D01*
X213859Y117621D01*
X213776Y117548D01*
X213694Y117473D01*
X213616Y117395D01*
X213541Y117313D01*
X213468Y117230D01*
X213398Y117144D01*
X213331Y117055D01*
X213268Y116964D01*
X213207Y116871D01*
X213150Y116776D01*
X213097Y116680D01*
X213046Y116581D01*
X212999Y116480D01*
X212956Y116378D01*
X212916Y116275D01*
X212880Y116170D01*
X212848Y116064D01*
X212819Y115957D01*
X212794Y115849D01*
X212773Y115740D01*
X212756Y115631D01*
X212742Y115521D01*
X212733Y115410D01*
X212727Y115300D01*
X212725Y115189D01*
X207645Y115824D02*
X207645Y112014D01*
X207645Y115824D02*
X207647Y115924D01*
X207653Y116023D01*
X207663Y116123D01*
X207676Y116221D01*
X207694Y116320D01*
X207715Y116417D01*
X207740Y116513D01*
X207769Y116609D01*
X207802Y116703D01*
X207838Y116796D01*
X207878Y116887D01*
X207922Y116977D01*
X207969Y117065D01*
X208019Y117151D01*
X208073Y117235D01*
X208130Y117317D01*
X208190Y117396D01*
X208254Y117474D01*
X208320Y117548D01*
X208389Y117620D01*
X208461Y117689D01*
X208535Y117755D01*
X208613Y117819D01*
X208692Y117879D01*
X208774Y117936D01*
X208858Y117990D01*
X208944Y118040D01*
X209032Y118087D01*
X209122Y118131D01*
X209213Y118171D01*
X209306Y118207D01*
X209400Y118240D01*
X209496Y118269D01*
X209592Y118294D01*
X209689Y118315D01*
X209788Y118333D01*
X209886Y118346D01*
X209986Y118356D01*
X210085Y118362D01*
X210185Y118364D01*
X210285Y118362D01*
X210384Y118356D01*
X210484Y118346D01*
X210582Y118333D01*
X210681Y118315D01*
X210778Y118294D01*
X210874Y118269D01*
X210970Y118240D01*
X211064Y118207D01*
X211157Y118171D01*
X211248Y118131D01*
X211338Y118087D01*
X211426Y118040D01*
X211512Y117990D01*
X211596Y117936D01*
X211678Y117879D01*
X211757Y117819D01*
X211835Y117755D01*
X211909Y117689D01*
X211981Y117620D01*
X212050Y117548D01*
X212116Y117474D01*
X212180Y117396D01*
X212240Y117317D01*
X212297Y117235D01*
X212351Y117151D01*
X212401Y117065D01*
X212448Y116977D01*
X212492Y116887D01*
X212532Y116796D01*
X212568Y116703D01*
X212601Y116609D01*
X212630Y116513D01*
X212655Y116417D01*
X212676Y116320D01*
X212694Y116221D01*
X212707Y116123D01*
X212717Y116023D01*
X212723Y115924D01*
X212725Y115824D01*
X212725Y113284D01*
D12*
X196850Y190500D02*
X184150Y190500D01*
X177800Y196850D01*
X177800Y209550D01*
X184150Y215900D01*
X177800Y196850D02*
X171450Y190500D01*
X158750Y190500D01*
X152400Y196850D01*
X152400Y209550D01*
X158750Y215900D01*
X171450Y215900D01*
X177800Y209550D01*
X203200Y209550D02*
X203200Y196850D01*
X196850Y190500D01*
X203200Y209550D02*
X196850Y215900D01*
X184150Y215900D01*
X152400Y196850D02*
X146050Y190500D01*
X133350Y190500D01*
X127000Y196850D01*
X127000Y209550D01*
X133350Y215900D01*
X146050Y215900D01*
X152400Y209550D01*
D11*
X175260Y184277D02*
X175260Y176022D01*
X175262Y175911D01*
X175268Y175801D01*
X175277Y175690D01*
X175291Y175580D01*
X175308Y175471D01*
X175329Y175362D01*
X175354Y175254D01*
X175383Y175147D01*
X175415Y175041D01*
X175451Y174936D01*
X175491Y174833D01*
X175534Y174731D01*
X175581Y174630D01*
X175632Y174531D01*
X175685Y174435D01*
X175742Y174340D01*
X175803Y174247D01*
X175866Y174156D01*
X175933Y174067D01*
X176003Y173981D01*
X176076Y173898D01*
X176151Y173816D01*
X176229Y173738D01*
X176311Y173663D01*
X176394Y173590D01*
X176480Y173520D01*
X176569Y173453D01*
X176660Y173390D01*
X176753Y173329D01*
X176848Y173272D01*
X176944Y173219D01*
X177043Y173168D01*
X177144Y173121D01*
X177246Y173078D01*
X177349Y173038D01*
X177454Y173002D01*
X177560Y172970D01*
X177667Y172941D01*
X177775Y172916D01*
X177884Y172895D01*
X177993Y172878D01*
X178103Y172864D01*
X178214Y172855D01*
X178324Y172849D01*
X178435Y172847D01*
X178546Y172849D01*
X178656Y172855D01*
X178767Y172864D01*
X178877Y172878D01*
X178986Y172895D01*
X179095Y172916D01*
X179203Y172941D01*
X179310Y172970D01*
X179416Y173002D01*
X179521Y173038D01*
X179624Y173078D01*
X179726Y173121D01*
X179827Y173168D01*
X179926Y173219D01*
X180022Y173272D01*
X180117Y173329D01*
X180210Y173390D01*
X180301Y173453D01*
X180390Y173520D01*
X180476Y173590D01*
X180559Y173663D01*
X180641Y173738D01*
X180719Y173816D01*
X180794Y173898D01*
X180867Y173981D01*
X180937Y174067D01*
X181004Y174156D01*
X181067Y174247D01*
X181128Y174340D01*
X181185Y174434D01*
X181238Y174531D01*
X181289Y174630D01*
X181336Y174731D01*
X181379Y174833D01*
X181419Y174936D01*
X181455Y175041D01*
X181487Y175147D01*
X181516Y175254D01*
X181541Y175362D01*
X181562Y175471D01*
X181579Y175580D01*
X181593Y175690D01*
X181602Y175801D01*
X181608Y175911D01*
X181610Y176022D01*
X181610Y184277D01*
X189484Y184277D02*
X189484Y172847D01*
X189484Y178562D02*
X187897Y179515D01*
X187896Y179514D02*
X187823Y179561D01*
X187752Y179610D01*
X187683Y179663D01*
X187617Y179719D01*
X187553Y179778D01*
X187492Y179839D01*
X187434Y179903D01*
X187379Y179970D01*
X187327Y180040D01*
X187279Y180111D01*
X187233Y180185D01*
X187191Y180261D01*
X187153Y180339D01*
X187118Y180418D01*
X187087Y180499D01*
X187060Y180581D01*
X187036Y180664D01*
X187016Y180749D01*
X187000Y180834D01*
X186988Y180920D01*
X186980Y181006D01*
X186976Y181092D01*
X186975Y181179D01*
X186979Y181266D01*
X186987Y181352D01*
X186998Y181438D01*
X187014Y181523D01*
X187033Y181607D01*
X187056Y181691D01*
X187083Y181773D01*
X187114Y181854D01*
X187149Y181934D01*
X187186Y182011D01*
X187228Y182087D01*
X187273Y182162D01*
X187321Y182233D01*
X187373Y182303D01*
X187427Y182370D01*
X187485Y182435D01*
X187545Y182497D01*
X187609Y182556D01*
X187675Y182612D01*
X187743Y182666D01*
X187814Y182715D01*
X187887Y182762D01*
X187962Y182805D01*
X188039Y182845D01*
X188117Y182881D01*
X188198Y182914D01*
X188279Y182943D01*
X188362Y182968D01*
X188446Y182990D01*
X188531Y183007D01*
X188532Y183007D02*
X188669Y183030D01*
X188808Y183050D01*
X188946Y183065D01*
X189085Y183077D01*
X189225Y183085D01*
X189364Y183088D01*
X189504Y183089D01*
X189643Y183085D01*
X189782Y183077D01*
X189921Y183066D01*
X190060Y183050D01*
X190198Y183031D01*
X190336Y183008D01*
X190473Y182981D01*
X190609Y182950D01*
X190744Y182916D01*
X190878Y182878D01*
X191012Y182836D01*
X191143Y182790D01*
X191274Y182741D01*
X191403Y182688D01*
X191531Y182632D01*
X191657Y182572D01*
X191781Y182509D01*
X191904Y182442D01*
X192024Y182372D01*
X189484Y178562D02*
X191072Y177610D01*
X191145Y177563D01*
X191216Y177514D01*
X191285Y177461D01*
X191351Y177405D01*
X191415Y177346D01*
X191476Y177285D01*
X191534Y177221D01*
X191589Y177154D01*
X191641Y177084D01*
X191689Y177013D01*
X191735Y176939D01*
X191777Y176863D01*
X191815Y176785D01*
X191850Y176706D01*
X191881Y176625D01*
X191908Y176543D01*
X191932Y176460D01*
X191952Y176375D01*
X191968Y176290D01*
X191980Y176204D01*
X191988Y176118D01*
X191992Y176032D01*
X191993Y175945D01*
X191989Y175858D01*
X191981Y175772D01*
X191970Y175686D01*
X191954Y175601D01*
X191935Y175517D01*
X191912Y175433D01*
X191885Y175351D01*
X191854Y175270D01*
X191819Y175190D01*
X191782Y175113D01*
X191740Y175037D01*
X191695Y174962D01*
X191647Y174891D01*
X191595Y174821D01*
X191541Y174754D01*
X191483Y174689D01*
X191423Y174627D01*
X191359Y174568D01*
X191293Y174512D01*
X191225Y174458D01*
X191154Y174409D01*
X191081Y174362D01*
X191006Y174319D01*
X190929Y174279D01*
X190851Y174243D01*
X190770Y174210D01*
X190689Y174181D01*
X190606Y174156D01*
X190522Y174134D01*
X190437Y174117D01*
X190436Y174117D02*
X190299Y174094D01*
X190160Y174074D01*
X190022Y174059D01*
X189883Y174047D01*
X189743Y174039D01*
X189604Y174036D01*
X189464Y174035D01*
X189325Y174039D01*
X189186Y174047D01*
X189047Y174058D01*
X188908Y174074D01*
X188770Y174093D01*
X188632Y174116D01*
X188495Y174143D01*
X188359Y174174D01*
X188224Y174208D01*
X188090Y174246D01*
X187956Y174288D01*
X187825Y174334D01*
X187694Y174383D01*
X187565Y174436D01*
X187437Y174492D01*
X187311Y174552D01*
X187187Y174615D01*
X187064Y174682D01*
X186944Y174752D01*
X200470Y184278D02*
X200574Y184276D01*
X200679Y184270D01*
X200783Y184261D01*
X200886Y184248D01*
X200989Y184230D01*
X201091Y184210D01*
X201193Y184185D01*
X201293Y184157D01*
X201393Y184125D01*
X201491Y184089D01*
X201588Y184050D01*
X201683Y184008D01*
X201777Y183962D01*
X201869Y183912D01*
X201959Y183860D01*
X202047Y183804D01*
X202133Y183744D01*
X202217Y183682D01*
X202298Y183617D01*
X202377Y183549D01*
X202454Y183477D01*
X202527Y183404D01*
X202599Y183327D01*
X202667Y183248D01*
X202732Y183167D01*
X202794Y183083D01*
X202854Y182997D01*
X202910Y182909D01*
X202962Y182819D01*
X203012Y182727D01*
X203058Y182633D01*
X203100Y182538D01*
X203139Y182441D01*
X203175Y182343D01*
X203207Y182243D01*
X203235Y182143D01*
X203260Y182041D01*
X203280Y181939D01*
X203298Y181836D01*
X203311Y181733D01*
X203320Y181629D01*
X203326Y181524D01*
X203328Y181420D01*
X200470Y184277D02*
X200352Y184275D01*
X200233Y184269D01*
X200115Y184260D01*
X199998Y184247D01*
X199881Y184229D01*
X199764Y184209D01*
X199648Y184184D01*
X199533Y184156D01*
X199420Y184123D01*
X199307Y184088D01*
X199195Y184048D01*
X199085Y184006D01*
X198976Y183959D01*
X198868Y183909D01*
X198763Y183856D01*
X198659Y183799D01*
X198557Y183739D01*
X198457Y183676D01*
X198359Y183609D01*
X198263Y183540D01*
X198170Y183467D01*
X198079Y183391D01*
X197990Y183313D01*
X197904Y183231D01*
X197821Y183147D01*
X197740Y183061D01*
X197663Y182971D01*
X197588Y182880D01*
X197516Y182786D01*
X197447Y182689D01*
X197382Y182591D01*
X197319Y182490D01*
X197260Y182387D01*
X197204Y182283D01*
X197152Y182177D01*
X197103Y182069D01*
X197058Y181960D01*
X197016Y181849D01*
X196978Y181737D01*
X202375Y179198D02*
X202451Y179273D01*
X202526Y179352D01*
X202597Y179433D01*
X202666Y179517D01*
X202731Y179603D01*
X202793Y179691D01*
X202853Y179781D01*
X202909Y179873D01*
X202962Y179968D01*
X203011Y180064D01*
X203057Y180162D01*
X203100Y180261D01*
X203139Y180362D01*
X203174Y180464D01*
X203206Y180567D01*
X203234Y180671D01*
X203259Y180776D01*
X203280Y180883D01*
X203297Y180989D01*
X203310Y181096D01*
X203319Y181204D01*
X203325Y181312D01*
X203327Y181420D01*
X202375Y179197D02*
X196977Y172847D01*
X203327Y172847D01*
D10*
X254000Y234950D02*
X260350Y241300D01*
X273050Y241300D01*
X279400Y234950D01*
X279400Y222250D02*
X273050Y215900D01*
X260350Y215900D01*
X254000Y222250D01*
X222250Y241300D02*
X209550Y241300D01*
X222250Y241300D02*
X228600Y234950D01*
X228600Y222250D02*
X222250Y215900D01*
X228600Y234950D02*
X234950Y241300D01*
X247650Y241300D01*
X254000Y234950D01*
X254000Y222250D02*
X247650Y215900D01*
X234950Y215900D01*
X228600Y222250D01*
X184150Y241300D02*
X177800Y234950D01*
X184150Y241300D02*
X196850Y241300D01*
X203200Y234950D01*
X203200Y222250D02*
X196850Y215900D01*
X184150Y215900D01*
X177800Y222250D01*
X203200Y234950D02*
X209550Y241300D01*
X203200Y222250D02*
X209550Y215900D01*
X222250Y215900D01*
X146050Y241300D02*
X133350Y241300D01*
X146050Y241300D02*
X152400Y234950D01*
X152400Y222250D02*
X146050Y215900D01*
X152400Y234950D02*
X158750Y241300D01*
X171450Y241300D01*
X177800Y234950D01*
X177800Y222250D02*
X171450Y215900D01*
X158750Y215900D01*
X152400Y222250D01*
X127000Y222250D02*
X127000Y234950D01*
X133350Y241300D01*
X127000Y222250D02*
X133350Y215900D01*
X146050Y215900D01*
X279400Y222250D02*
X279400Y234950D01*
D11*
X187664Y246817D02*
X187664Y250571D01*
X187663Y246817D02*
X187661Y246752D01*
X187655Y246688D01*
X187645Y246624D01*
X187632Y246560D01*
X187614Y246498D01*
X187593Y246437D01*
X187569Y246377D01*
X187540Y246319D01*
X187508Y246262D01*
X187473Y246208D01*
X187435Y246156D01*
X187393Y246106D01*
X187349Y246059D01*
X187302Y246015D01*
X187252Y245973D01*
X187200Y245935D01*
X187146Y245900D01*
X187089Y245868D01*
X187031Y245839D01*
X186971Y245815D01*
X186910Y245794D01*
X186848Y245776D01*
X186784Y245763D01*
X186720Y245753D01*
X186656Y245747D01*
X186591Y245745D01*
X186055Y245745D01*
X192086Y250571D02*
X192154Y250569D01*
X192221Y250563D01*
X192288Y250554D01*
X192355Y250541D01*
X192420Y250524D01*
X192485Y250503D01*
X192548Y250479D01*
X192610Y250451D01*
X192670Y250420D01*
X192728Y250386D01*
X192784Y250348D01*
X192839Y250308D01*
X192890Y250264D01*
X192939Y250217D01*
X192986Y250168D01*
X193030Y250117D01*
X193070Y250062D01*
X193108Y250006D01*
X193142Y249948D01*
X193173Y249888D01*
X193201Y249826D01*
X193225Y249763D01*
X193246Y249698D01*
X193263Y249633D01*
X193276Y249566D01*
X193285Y249499D01*
X193291Y249432D01*
X193293Y249364D01*
X192086Y250571D02*
X192008Y250569D01*
X191930Y250563D01*
X191853Y250553D01*
X191776Y250540D01*
X191700Y250522D01*
X191625Y250501D01*
X191551Y250476D01*
X191479Y250447D01*
X191408Y250415D01*
X191339Y250379D01*
X191271Y250340D01*
X191206Y250297D01*
X191143Y250251D01*
X191082Y250202D01*
X191024Y250150D01*
X190969Y250095D01*
X190916Y250038D01*
X190867Y249978D01*
X190820Y249915D01*
X190777Y249851D01*
X190737Y249784D01*
X190700Y249715D01*
X190667Y249644D01*
X190637Y249572D01*
X190611Y249499D01*
X192891Y248426D02*
X192940Y248475D01*
X192987Y248527D01*
X193030Y248582D01*
X193071Y248639D01*
X193109Y248698D01*
X193143Y248759D01*
X193174Y248822D01*
X193202Y248886D01*
X193226Y248952D01*
X193246Y249018D01*
X193263Y249086D01*
X193276Y249155D01*
X193285Y249224D01*
X193291Y249294D01*
X193293Y249364D01*
X192891Y248426D02*
X190612Y245745D01*
X193293Y245745D01*
D13*
X406400Y152400D03*
X406400Y381000D03*
D10*
X435450Y616950D02*
X478950Y616950D01*
X435450Y616950D02*
X435450Y500650D01*
X478950Y500650D01*
X478950Y616950D01*
D11*
X431363Y557488D02*
X431428Y557486D01*
X431492Y557480D01*
X431556Y557470D01*
X431620Y557457D01*
X431682Y557439D01*
X431743Y557418D01*
X431803Y557394D01*
X431861Y557365D01*
X431918Y557333D01*
X431972Y557298D01*
X432024Y557260D01*
X432074Y557218D01*
X432121Y557174D01*
X432165Y557127D01*
X432207Y557077D01*
X432245Y557025D01*
X432280Y556971D01*
X432312Y556914D01*
X432341Y556856D01*
X432365Y556796D01*
X432386Y556735D01*
X432404Y556673D01*
X432417Y556609D01*
X432427Y556545D01*
X432433Y556481D01*
X432435Y556416D01*
X432433Y556322D01*
X432427Y556228D01*
X432417Y556134D01*
X432404Y556041D01*
X432386Y555949D01*
X432365Y555857D01*
X432340Y555766D01*
X432311Y555676D01*
X432278Y555588D01*
X432242Y555501D01*
X432202Y555416D01*
X432159Y555332D01*
X432112Y555251D01*
X432062Y555171D01*
X432009Y555093D01*
X431952Y555018D01*
X431893Y554945D01*
X431830Y554875D01*
X431765Y554807D01*
X428681Y554942D02*
X428616Y554944D01*
X428552Y554950D01*
X428488Y554960D01*
X428424Y554973D01*
X428362Y554991D01*
X428301Y555012D01*
X428241Y555036D01*
X428183Y555065D01*
X428126Y555097D01*
X428072Y555132D01*
X428020Y555170D01*
X427970Y555212D01*
X427923Y555256D01*
X427879Y555303D01*
X427837Y555353D01*
X427799Y555405D01*
X427764Y555459D01*
X427732Y555516D01*
X427703Y555574D01*
X427679Y555634D01*
X427658Y555695D01*
X427640Y555757D01*
X427627Y555821D01*
X427617Y555885D01*
X427611Y555949D01*
X427609Y556014D01*
X427611Y556100D01*
X427616Y556186D01*
X427626Y556272D01*
X427639Y556357D01*
X427655Y556442D01*
X427675Y556526D01*
X427699Y556609D01*
X427726Y556691D01*
X427757Y556771D01*
X427791Y556851D01*
X427829Y556928D01*
X427870Y557004D01*
X427914Y557078D01*
X427961Y557151D01*
X428011Y557221D01*
X429619Y555478D02*
X429586Y555425D01*
X429549Y555374D01*
X429510Y555325D01*
X429468Y555278D01*
X429423Y555234D01*
X429376Y555193D01*
X429327Y555154D01*
X429275Y555118D01*
X429221Y555085D01*
X429166Y555056D01*
X429109Y555030D01*
X429050Y555007D01*
X428991Y554987D01*
X428930Y554971D01*
X428869Y554958D01*
X428806Y554949D01*
X428744Y554944D01*
X428681Y554942D01*
X430425Y556953D02*
X430458Y557006D01*
X430495Y557057D01*
X430534Y557106D01*
X430576Y557153D01*
X430621Y557197D01*
X430668Y557238D01*
X430717Y557277D01*
X430769Y557313D01*
X430823Y557346D01*
X430878Y557375D01*
X430935Y557401D01*
X430994Y557424D01*
X431053Y557444D01*
X431114Y557460D01*
X431175Y557473D01*
X431238Y557482D01*
X431300Y557487D01*
X431363Y557489D01*
X430424Y556953D02*
X429620Y555478D01*
X428681Y560111D02*
X427609Y561452D01*
X432435Y561452D01*
X432435Y562792D02*
X432435Y560111D01*
D14*
X165100Y406400D02*
X165100Y355600D01*
X165100Y406400D02*
X177800Y406400D01*
X190500Y406400D01*
X190500Y355600D01*
X177800Y355600D01*
X165100Y355600D01*
X177800Y406400D02*
X177800Y408940D01*
X177800Y355600D02*
X177800Y353060D01*
D11*
X161925Y376948D02*
X157099Y376948D01*
X157099Y378289D01*
X157101Y378360D01*
X157107Y378432D01*
X157116Y378502D01*
X157129Y378572D01*
X157146Y378642D01*
X157167Y378710D01*
X157191Y378777D01*
X157219Y378843D01*
X157250Y378907D01*
X157285Y378970D01*
X157323Y379030D01*
X157364Y379089D01*
X157408Y379145D01*
X157455Y379199D01*
X157504Y379250D01*
X157557Y379298D01*
X157612Y379344D01*
X157669Y379386D01*
X157729Y379426D01*
X157790Y379462D01*
X157854Y379495D01*
X157919Y379524D01*
X157985Y379550D01*
X158053Y379573D01*
X158122Y379592D01*
X158192Y379607D01*
X158262Y379618D01*
X158333Y379626D01*
X158404Y379630D01*
X158476Y379630D01*
X158547Y379626D01*
X158618Y379618D01*
X158688Y379607D01*
X158758Y379592D01*
X158827Y379573D01*
X158895Y379550D01*
X158961Y379524D01*
X159026Y379495D01*
X159090Y379462D01*
X159151Y379426D01*
X159211Y379386D01*
X159268Y379344D01*
X159323Y379298D01*
X159376Y379250D01*
X159425Y379199D01*
X159472Y379145D01*
X159516Y379089D01*
X159557Y379030D01*
X159595Y378970D01*
X159630Y378907D01*
X159661Y378843D01*
X159689Y378777D01*
X159713Y378710D01*
X159734Y378642D01*
X159751Y378572D01*
X159764Y378502D01*
X159773Y378432D01*
X159779Y378360D01*
X159781Y378289D01*
X159780Y378289D02*
X159780Y376948D01*
X159780Y378557D02*
X161925Y379629D01*
X158171Y382371D02*
X157099Y383711D01*
X161925Y383711D01*
X161925Y382371D02*
X161925Y385052D01*
D15*
X277300Y495300D02*
X277308Y495975D01*
X277333Y496649D01*
X277375Y497323D01*
X277432Y497995D01*
X277507Y498666D01*
X277598Y499335D01*
X277705Y500001D01*
X277828Y500665D01*
X277968Y501325D01*
X278124Y501982D01*
X278296Y502635D01*
X278484Y503283D01*
X278688Y503926D01*
X278908Y504564D01*
X279143Y505197D01*
X279393Y505824D01*
X279659Y506444D01*
X279940Y507058D01*
X280236Y507664D01*
X280547Y508263D01*
X280873Y508855D01*
X281212Y509438D01*
X281567Y510012D01*
X281935Y510578D01*
X282316Y511135D01*
X282712Y511682D01*
X283120Y512219D01*
X283542Y512746D01*
X283977Y513262D01*
X284424Y513768D01*
X284883Y514262D01*
X285355Y514745D01*
X285838Y515217D01*
X286332Y515676D01*
X286838Y516123D01*
X287354Y516558D01*
X287881Y516980D01*
X288418Y517388D01*
X288965Y517784D01*
X289522Y518165D01*
X290088Y518533D01*
X290662Y518888D01*
X291245Y519227D01*
X291837Y519553D01*
X292436Y519864D01*
X293042Y520160D01*
X293656Y520441D01*
X294276Y520707D01*
X294903Y520957D01*
X295536Y521192D01*
X296174Y521412D01*
X296817Y521616D01*
X297465Y521804D01*
X298118Y521976D01*
X298775Y522132D01*
X299435Y522272D01*
X300099Y522395D01*
X300765Y522502D01*
X301434Y522593D01*
X302105Y522668D01*
X302777Y522725D01*
X303451Y522767D01*
X304125Y522792D01*
X304800Y522800D01*
X305475Y522792D01*
X306149Y522767D01*
X306823Y522725D01*
X307495Y522668D01*
X308166Y522593D01*
X308835Y522502D01*
X309501Y522395D01*
X310165Y522272D01*
X310825Y522132D01*
X311482Y521976D01*
X312135Y521804D01*
X312783Y521616D01*
X313426Y521412D01*
X314064Y521192D01*
X314697Y520957D01*
X315324Y520707D01*
X315944Y520441D01*
X316558Y520160D01*
X317164Y519864D01*
X317763Y519553D01*
X318355Y519227D01*
X318938Y518888D01*
X319512Y518533D01*
X320078Y518165D01*
X320635Y517784D01*
X321182Y517388D01*
X321719Y516980D01*
X322246Y516558D01*
X322762Y516123D01*
X323268Y515676D01*
X323762Y515217D01*
X324245Y514745D01*
X324717Y514262D01*
X325176Y513768D01*
X325623Y513262D01*
X326058Y512746D01*
X326480Y512219D01*
X326888Y511682D01*
X327284Y511135D01*
X327665Y510578D01*
X328033Y510012D01*
X328388Y509438D01*
X328727Y508855D01*
X329053Y508263D01*
X329364Y507664D01*
X329660Y507058D01*
X329941Y506444D01*
X330207Y505824D01*
X330457Y505197D01*
X330692Y504564D01*
X330912Y503926D01*
X331116Y503283D01*
X331304Y502635D01*
X331476Y501982D01*
X331632Y501325D01*
X331772Y500665D01*
X331895Y500001D01*
X332002Y499335D01*
X332093Y498666D01*
X332168Y497995D01*
X332225Y497323D01*
X332267Y496649D01*
X332292Y495975D01*
X332300Y495300D01*
X332292Y494625D01*
X332267Y493951D01*
X332225Y493277D01*
X332168Y492605D01*
X332093Y491934D01*
X332002Y491265D01*
X331895Y490599D01*
X331772Y489935D01*
X331632Y489275D01*
X331476Y488618D01*
X331304Y487965D01*
X331116Y487317D01*
X330912Y486674D01*
X330692Y486036D01*
X330457Y485403D01*
X330207Y484776D01*
X329941Y484156D01*
X329660Y483542D01*
X329364Y482936D01*
X329053Y482337D01*
X328727Y481745D01*
X328388Y481162D01*
X328033Y480588D01*
X327665Y480022D01*
X327284Y479465D01*
X326888Y478918D01*
X326480Y478381D01*
X326058Y477854D01*
X325623Y477338D01*
X325176Y476832D01*
X324717Y476338D01*
X324245Y475855D01*
X323762Y475383D01*
X323268Y474924D01*
X322762Y474477D01*
X322246Y474042D01*
X321719Y473620D01*
X321182Y473212D01*
X320635Y472816D01*
X320078Y472435D01*
X319512Y472067D01*
X318938Y471712D01*
X318355Y471373D01*
X317763Y471047D01*
X317164Y470736D01*
X316558Y470440D01*
X315944Y470159D01*
X315324Y469893D01*
X314697Y469643D01*
X314064Y469408D01*
X313426Y469188D01*
X312783Y468984D01*
X312135Y468796D01*
X311482Y468624D01*
X310825Y468468D01*
X310165Y468328D01*
X309501Y468205D01*
X308835Y468098D01*
X308166Y468007D01*
X307495Y467932D01*
X306823Y467875D01*
X306149Y467833D01*
X305475Y467808D01*
X304800Y467800D01*
X304125Y467808D01*
X303451Y467833D01*
X302777Y467875D01*
X302105Y467932D01*
X301434Y468007D01*
X300765Y468098D01*
X300099Y468205D01*
X299435Y468328D01*
X298775Y468468D01*
X298118Y468624D01*
X297465Y468796D01*
X296817Y468984D01*
X296174Y469188D01*
X295536Y469408D01*
X294903Y469643D01*
X294276Y469893D01*
X293656Y470159D01*
X293042Y470440D01*
X292436Y470736D01*
X291837Y471047D01*
X291245Y471373D01*
X290662Y471712D01*
X290088Y472067D01*
X289522Y472435D01*
X288965Y472816D01*
X288418Y473212D01*
X287881Y473620D01*
X287354Y474042D01*
X286838Y474477D01*
X286332Y474924D01*
X285838Y475383D01*
X285355Y475855D01*
X284883Y476338D01*
X284424Y476832D01*
X283977Y477338D01*
X283542Y477854D01*
X283120Y478381D01*
X282712Y478918D01*
X282316Y479465D01*
X281935Y480022D01*
X281567Y480588D01*
X281212Y481162D01*
X280873Y481745D01*
X280547Y482337D01*
X280236Y482936D01*
X279940Y483542D01*
X279659Y484156D01*
X279393Y484776D01*
X279143Y485403D01*
X278908Y486036D01*
X278688Y486674D01*
X278484Y487317D01*
X278296Y487965D01*
X278124Y488618D01*
X277968Y489275D01*
X277828Y489935D01*
X277705Y490599D01*
X277598Y491265D01*
X277507Y491934D01*
X277432Y492605D01*
X277375Y493277D01*
X277333Y493951D01*
X277308Y494625D01*
X277300Y495300D01*
D16*
X303800Y461900D02*
X303802Y461963D01*
X303808Y462025D01*
X303818Y462087D01*
X303831Y462149D01*
X303849Y462209D01*
X303870Y462268D01*
X303895Y462326D01*
X303924Y462382D01*
X303956Y462436D01*
X303991Y462488D01*
X304029Y462537D01*
X304071Y462585D01*
X304115Y462629D01*
X304163Y462671D01*
X304212Y462709D01*
X304264Y462744D01*
X304318Y462776D01*
X304374Y462805D01*
X304432Y462830D01*
X304491Y462851D01*
X304551Y462869D01*
X304613Y462882D01*
X304675Y462892D01*
X304737Y462898D01*
X304800Y462900D01*
X304863Y462898D01*
X304925Y462892D01*
X304987Y462882D01*
X305049Y462869D01*
X305109Y462851D01*
X305168Y462830D01*
X305226Y462805D01*
X305282Y462776D01*
X305336Y462744D01*
X305388Y462709D01*
X305437Y462671D01*
X305485Y462629D01*
X305529Y462585D01*
X305571Y462537D01*
X305609Y462488D01*
X305644Y462436D01*
X305676Y462382D01*
X305705Y462326D01*
X305730Y462268D01*
X305751Y462209D01*
X305769Y462149D01*
X305782Y462087D01*
X305792Y462025D01*
X305798Y461963D01*
X305800Y461900D01*
X305798Y461837D01*
X305792Y461775D01*
X305782Y461713D01*
X305769Y461651D01*
X305751Y461591D01*
X305730Y461532D01*
X305705Y461474D01*
X305676Y461418D01*
X305644Y461364D01*
X305609Y461312D01*
X305571Y461263D01*
X305529Y461215D01*
X305485Y461171D01*
X305437Y461129D01*
X305388Y461091D01*
X305336Y461056D01*
X305282Y461024D01*
X305226Y460995D01*
X305168Y460970D01*
X305109Y460949D01*
X305049Y460931D01*
X304987Y460918D01*
X304925Y460908D01*
X304863Y460902D01*
X304800Y460900D01*
X304737Y460902D01*
X304675Y460908D01*
X304613Y460918D01*
X304551Y460931D01*
X304491Y460949D01*
X304432Y460970D01*
X304374Y460995D01*
X304318Y461024D01*
X304264Y461056D01*
X304212Y461091D01*
X304163Y461129D01*
X304115Y461171D01*
X304071Y461215D01*
X304029Y461263D01*
X303991Y461312D01*
X303956Y461364D01*
X303924Y461418D01*
X303895Y461474D01*
X303870Y461532D01*
X303849Y461591D01*
X303831Y461651D01*
X303818Y461713D01*
X303808Y461775D01*
X303802Y461837D01*
X303800Y461900D01*
D11*
X271145Y465299D02*
X271145Y467684D01*
X271145Y465299D02*
X271143Y465203D01*
X271137Y465107D01*
X271128Y465012D01*
X271114Y464917D01*
X271097Y464822D01*
X271076Y464728D01*
X271051Y464636D01*
X271022Y464544D01*
X270990Y464454D01*
X270954Y464365D01*
X270915Y464277D01*
X270872Y464191D01*
X270826Y464107D01*
X270776Y464025D01*
X270723Y463945D01*
X270667Y463867D01*
X270608Y463791D01*
X270545Y463718D01*
X270480Y463648D01*
X270412Y463580D01*
X270342Y463515D01*
X270269Y463452D01*
X270193Y463393D01*
X270115Y463337D01*
X270035Y463284D01*
X269953Y463234D01*
X269869Y463188D01*
X269783Y463145D01*
X269695Y463106D01*
X269606Y463070D01*
X269516Y463038D01*
X269424Y463009D01*
X269332Y462984D01*
X269238Y462963D01*
X269143Y462946D01*
X269048Y462932D01*
X268953Y462923D01*
X268857Y462917D01*
X268761Y462915D01*
X262799Y462915D01*
X262703Y462917D01*
X262607Y462923D01*
X262512Y462932D01*
X262416Y462946D01*
X262322Y462963D01*
X262228Y462984D01*
X262135Y463009D01*
X262044Y463038D01*
X261953Y463070D01*
X261864Y463106D01*
X261777Y463145D01*
X261691Y463188D01*
X261607Y463235D01*
X261524Y463284D01*
X261444Y463337D01*
X261366Y463393D01*
X261291Y463453D01*
X261217Y463515D01*
X261147Y463580D01*
X261079Y463648D01*
X261014Y463718D01*
X260952Y463792D01*
X260892Y463867D01*
X260836Y463945D01*
X260783Y464025D01*
X260734Y464107D01*
X260687Y464192D01*
X260644Y464278D01*
X260605Y464365D01*
X260569Y464454D01*
X260537Y464545D01*
X260508Y464636D01*
X260483Y464729D01*
X260462Y464823D01*
X260445Y464917D01*
X260431Y465012D01*
X260422Y465108D01*
X260416Y465204D01*
X260414Y465300D01*
X260415Y465299D02*
X260415Y467684D01*
X262799Y471951D02*
X260415Y474932D01*
X271145Y474932D01*
X271145Y471951D02*
X271145Y477913D01*
M02*
