G04 EAGLE Gerber RS-274X export*
G75*
%MOMM*%
%FSLAX34Y34*%
%LPD*%
%INSoldermask Bottom*%
%IPPOS*%
%AMOC8*
5,1,8,0,0,1.08239X$1,22.5*%
G01*
%ADD10C,2.153200*%
%ADD11C,1.511200*%
%ADD12C,1.511200*%
%ADD13C,1.524000*%
%ADD14C,1.625600*%
%ADD15P,1.759533X8X112.500000*%
%ADD16C,1.727200*%
%ADD17C,2.082800*%
%ADD18C,1.311200*%
%ADD19R,1.411200X1.411200*%
%ADD20C,1.411200*%

G36*
X177951Y409024D02*
X177951Y409024D01*
X178023Y409022D01*
X179859Y409227D01*
X179905Y409241D01*
X179980Y409253D01*
X181741Y409813D01*
X181783Y409836D01*
X181855Y409862D01*
X183472Y410755D01*
X183510Y410785D01*
X183575Y410825D01*
X184987Y412016D01*
X185018Y412053D01*
X185074Y412105D01*
X186227Y413549D01*
X186250Y413591D01*
X186294Y413653D01*
X187143Y415294D01*
X187158Y415340D01*
X187189Y415409D01*
X187702Y417184D01*
X187707Y417232D01*
X187725Y417307D01*
X187881Y419147D01*
X187877Y419191D01*
X187881Y419256D01*
X187721Y421087D01*
X187708Y421133D01*
X187698Y421209D01*
X187184Y422973D01*
X187163Y423017D01*
X187138Y423089D01*
X186289Y424719D01*
X186260Y424757D01*
X186221Y424823D01*
X185071Y426256D01*
X185035Y426288D01*
X184984Y426345D01*
X183576Y427526D01*
X183535Y427550D01*
X183474Y427596D01*
X181862Y428480D01*
X181817Y428495D01*
X181748Y428529D01*
X179995Y429081D01*
X179948Y429087D01*
X179874Y429107D01*
X178047Y429307D01*
X178001Y429303D01*
X177932Y429309D01*
X176256Y429186D01*
X176213Y429175D01*
X176147Y429169D01*
X174517Y428758D01*
X174477Y428739D01*
X174413Y428721D01*
X172880Y428033D01*
X172843Y428008D01*
X172783Y427979D01*
X171393Y427035D01*
X171361Y427004D01*
X171307Y426966D01*
X170101Y425795D01*
X170075Y425759D01*
X170029Y425711D01*
X169045Y424349D01*
X169026Y424308D01*
X168989Y424254D01*
X168256Y422741D01*
X168244Y422698D01*
X168217Y422638D01*
X167759Y421021D01*
X167754Y420976D01*
X167738Y420912D01*
X167567Y419240D01*
X167571Y419192D01*
X167567Y419113D01*
X167733Y417441D01*
X167745Y417398D01*
X167754Y417333D01*
X168208Y415715D01*
X168227Y415674D01*
X168247Y415611D01*
X168975Y414097D01*
X169001Y414061D01*
X169031Y414002D01*
X170012Y412637D01*
X170044Y412606D01*
X170084Y412553D01*
X171286Y411379D01*
X171323Y411354D01*
X171371Y411309D01*
X172759Y410362D01*
X172800Y410344D01*
X172856Y410308D01*
X174387Y409616D01*
X174430Y409605D01*
X174491Y409579D01*
X176120Y409164D01*
X176164Y409161D01*
X176229Y409146D01*
X177904Y409020D01*
X177951Y409024D01*
G37*
G36*
X178027Y332748D02*
X178027Y332748D01*
X178099Y332746D01*
X179935Y332951D01*
X179981Y332965D01*
X180056Y332977D01*
X181817Y333537D01*
X181859Y333560D01*
X181931Y333586D01*
X183548Y334479D01*
X183586Y334509D01*
X183651Y334549D01*
X185063Y335740D01*
X185094Y335777D01*
X185150Y335829D01*
X186303Y337273D01*
X186326Y337315D01*
X186370Y337377D01*
X187219Y339018D01*
X187234Y339064D01*
X187265Y339133D01*
X187778Y340908D01*
X187783Y340956D01*
X187801Y341031D01*
X187957Y342871D01*
X187953Y342915D01*
X187957Y342980D01*
X187797Y344811D01*
X187784Y344857D01*
X187774Y344933D01*
X187260Y346697D01*
X187239Y346741D01*
X187214Y346813D01*
X186365Y348443D01*
X186336Y348481D01*
X186297Y348547D01*
X185147Y349980D01*
X185111Y350012D01*
X185060Y350069D01*
X183652Y351250D01*
X183611Y351274D01*
X183550Y351320D01*
X181938Y352204D01*
X181893Y352219D01*
X181824Y352253D01*
X180071Y352805D01*
X180024Y352811D01*
X179950Y352831D01*
X178123Y353031D01*
X178077Y353027D01*
X178008Y353033D01*
X176332Y352910D01*
X176289Y352899D01*
X176223Y352893D01*
X174593Y352482D01*
X174553Y352463D01*
X174489Y352445D01*
X172956Y351757D01*
X172919Y351732D01*
X172859Y351703D01*
X171469Y350759D01*
X171437Y350728D01*
X171383Y350690D01*
X170177Y349519D01*
X170151Y349483D01*
X170105Y349435D01*
X169121Y348073D01*
X169102Y348032D01*
X169065Y347978D01*
X168332Y346465D01*
X168320Y346422D01*
X168293Y346362D01*
X167835Y344745D01*
X167830Y344700D01*
X167814Y344636D01*
X167643Y342964D01*
X167647Y342916D01*
X167643Y342837D01*
X167809Y341165D01*
X167821Y341122D01*
X167830Y341057D01*
X168284Y339439D01*
X168303Y339398D01*
X168323Y339335D01*
X169051Y337821D01*
X169077Y337785D01*
X169107Y337726D01*
X170088Y336361D01*
X170120Y336330D01*
X170160Y336277D01*
X171362Y335103D01*
X171399Y335078D01*
X171447Y335033D01*
X172835Y334086D01*
X172876Y334068D01*
X172932Y334032D01*
X174463Y333340D01*
X174506Y333329D01*
X174567Y333303D01*
X176196Y332888D01*
X176240Y332885D01*
X176305Y332870D01*
X177980Y332744D01*
X178027Y332748D01*
G37*
D10*
X365760Y503080D03*
X365760Y561080D03*
X317760Y533080D03*
D11*
X127000Y577660D02*
X127000Y590740D01*
X152400Y590740D02*
X152400Y577660D01*
X177800Y577660D02*
X177800Y590740D01*
X203200Y590740D02*
X203200Y577660D01*
X228600Y577660D02*
X228600Y590740D01*
X254000Y590740D02*
X254000Y577660D01*
X120840Y558800D02*
X107760Y558800D01*
X107760Y533400D02*
X120840Y533400D01*
X120840Y508000D02*
X107760Y508000D01*
X107760Y482600D02*
X120840Y482600D01*
X120840Y457200D02*
X107760Y457200D01*
X107760Y431800D02*
X120840Y431800D01*
X120840Y406400D02*
X107760Y406400D01*
X107760Y381000D02*
X120840Y381000D01*
X120840Y355600D02*
X107760Y355600D01*
X107760Y330200D02*
X120840Y330200D01*
X120840Y304800D02*
X107760Y304800D01*
X107760Y279400D02*
X120840Y279400D01*
X260160Y558800D02*
X273240Y558800D01*
X273240Y533400D02*
X260160Y533400D01*
X260160Y508000D02*
X273240Y508000D01*
X273240Y482600D02*
X260160Y482600D01*
X260160Y457200D02*
X273240Y457200D01*
X273240Y431800D02*
X260160Y431800D01*
X260160Y406400D02*
X273240Y406400D01*
X273240Y381000D02*
X260160Y381000D01*
X260160Y355600D02*
X273240Y355600D01*
X273240Y330200D02*
X260160Y330200D01*
X260160Y304800D02*
X273240Y304800D01*
X273240Y279400D02*
X260160Y279400D01*
X228600Y285940D02*
X228600Y272860D01*
X203200Y272860D02*
X203200Y285940D01*
X177800Y285940D02*
X177800Y272860D01*
D12*
X228600Y469900D03*
X228600Y444500D03*
D13*
X95504Y228600D02*
X82296Y228600D01*
X82296Y203200D02*
X95504Y203200D01*
X95504Y177800D02*
X82296Y177800D01*
X82296Y152400D02*
X95504Y152400D01*
X95504Y127000D02*
X82296Y127000D01*
X82296Y101600D02*
X95504Y101600D01*
D14*
X241300Y50800D03*
D15*
X266700Y50800D03*
X241300Y76200D03*
X266700Y76200D03*
X241300Y101600D03*
X266700Y101600D03*
X241300Y127000D03*
X266700Y127000D03*
X241300Y152400D03*
X266700Y152400D03*
X241300Y177800D03*
X266700Y177800D03*
D16*
X190500Y203200D03*
X165100Y203200D03*
X139700Y203200D03*
D17*
X139700Y228600D03*
X165100Y228600D03*
X190500Y228600D03*
X215900Y228600D03*
X241300Y228600D03*
X266700Y228600D03*
D18*
X342900Y228600D03*
X469900Y228600D03*
X444500Y76200D03*
X368300Y76200D03*
X342900Y457200D03*
X469900Y457200D03*
X444500Y304800D03*
X368300Y304800D03*
D17*
X457200Y584200D03*
X457200Y558800D03*
X457200Y533400D03*
D19*
X304800Y485300D03*
D20*
X304800Y505300D03*
M02*
