M48
;GenerationSoftware,Autodesk,EAGLE,9.6.2*%
;CreationDate,2022-05-06T07:12:07Z*%
FMAT,2
ICI,OFF
METRIC,TZ,000.000
T7C0.600
T6C0.700
T5C0.800
T4C0.813
T3C0.914
T2C1.016
T1C1.300
%
G90
M71
T1
X36576Y50308
X36576Y56108
X31776Y53308
T2
X17780Y41910
X19050Y20320
X16510Y20320
X13970Y20320
X13970Y22860
X16510Y22860
X19050Y22860
X21590Y22860
X24130Y22860
X26670Y22860
X45720Y58420
X45720Y55880
X45720Y53340
X17780Y34290
T3
X24130Y12700
X24130Y5080
X26670Y5080
X24130Y7620
X26670Y7620
X24130Y10160
X26670Y10160
X26670Y12700
X24130Y17780
X26670Y17780
X26670Y15240
X24130Y15240
T4
X8890Y22860
X8890Y20320
X8890Y17780
X8890Y15240
X8890Y12700
X8890Y10160
T5
X22860Y27940
X20320Y27940
X17780Y27940
X22860Y46990
X22860Y44450
X11430Y53340
X12700Y58420
X15240Y58420
X17780Y58420
X20320Y58420
X22860Y58420
X25400Y58420
X11430Y55880
X11430Y50800
X11430Y48260
X26670Y33020
X11430Y45720
X11430Y43180
X11430Y40640
X11430Y38100
X11430Y35560
X11430Y33020
X11430Y30480
X11430Y27940
X26670Y55880
X26670Y53340
X26670Y50800
X26670Y48260
X26670Y45720
X26670Y43180
X26670Y40640
X26670Y38100
X26670Y35560
X26670Y30480
X26670Y27940
T6
X30480Y50530
X30480Y48530
T7
X46990Y45720
X44450Y30480
X36830Y30480
X34290Y22860
X46990Y22860
X44450Y7620
X36830Y7620
X34290Y45720
M30